<svg xmlns="http://www.w3.org/2000/svg" viewBox="0 0 360 360" role="img" aria-labelledby="title desc">
  <title id="title">saracreations0810 logo mark</title>
  <desc id="desc">A simple monogram logo for saracreations0810.</desc>
  <rect width="360" height="360" rx="64" fill="#1b1715"/>
  <path d="M76 230c36 34 86 48 132 34 45-13 74-46 76-82 2-30-16-55-48-66-31-11-70-7-113 13l15 34c33-15 62-19 82-12 17 6 26 18 25 32-1 19-19 38-48 47-34 10-70 0-96-25z" fill="#d6b55f"/>
  <path d="M112 106c34-28 78-38 119-27 27 7 47 23 61 45l-31 20c-9-15-23-25-41-30-29-8-61 0-86 21z" fill="#f6efe5"/>
  <path d="M133 191h91v36h-91z" fill="#7d1f2d"/>
</svg>
